<svg width="49" height="50" xmlns="http://www.w3.org/2000/svg" xmlns:xlink="http://www.w3.org/1999/xlink" xml:space="preserve" overflow="hidden"><g transform="translate(-1144 -542)"><g><g><g><g><path d="M1183.4 569.241C1183.34 568.331 1182.55 567.663 1180.96 567.192 1181.75 566.958 1182.45 566.632 1182.95 566.182 1183.5 565.692 1183.78 565.097 1183.8 564.413 1183.81 563.975 1183.64 563.566 1183.29 563.232 1182.88 562.823 1182.17 562.526 1181.33 562.313 1182.03 562.091 1182.62 561.807 1182.99 561.445 1183.4 561.035 1183.49 560.607 1183.49 560.319 1183.49 559.641 1183.23 559.051 1182.74 558.561 1180.88 556.737 1175.84 556.819 1172.17 556.881 1171.09 556.898 1169.88 556.918 1169.38 556.852 1169.37 556.377 1169.56 555.288 1169.71 554.388 1170.24 551.243 1170.96 546.936 1169.34 544.756 1168.79 544.018 1168.02 543.584 1167.06 543.464 1166.41 543.382 1166.07 544.007 1165.44 545.806 1165.03 546.993 1164.5 548.74 1163.87 551.001 1162.81 554.794 1161.43 560.094 1159.77 566.753 1156.96 578.086 1154.29 589.588 1154.26 589.703 1154.18 590.049 1154.4 590.394 1154.74 590.474 1154.78 590.485 1154.83 590.489 1154.87 590.49L1154.87 590.493 1173.23 590.449 1173.23 590.446C1173.58 590.437 1173.86 590.149 1173.85 589.799L1173.73 577.799C1175.62 577.98 1180.39 578.241 1182.33 576.581 1182.89 576.1 1183.2 575.473 1183.22 574.77 1183.23 574.17 1183 573.613 1182.54 573.161 1182.1 572.733 1181.45 572.382 1180.58 572.108 1181.46 571.849 1182.22 571.485 1182.72 570.979 1183.2 570.494 1183.43 569.896 1183.4 569.247ZM1181.81 570.067C1181.17 570.719 1179.56 571.177 1177.29 571.356 1176.82 571.394 1176.37 571.416 1175.95 571.429 1174.72 571.38 1173.82 571.414 1173.77 571.418 1173.42 571.432 1173.15 571.712 1173.15 572.055 1173.15 572.398 1173.42 572.681 1173.76 572.7 1174 572.713 1174.89 572.754 1176.04 572.719 1176.41 572.735 1176.8 572.76 1177.21 572.795 1179.43 572.99 1181 573.443 1181.64 574.069 1181.85 574.274 1181.94 574.485 1181.93 574.73 1181.92 575.075 1181.79 575.352 1181.5 575.599 1179.91 576.962 1174.94 576.668 1173.16 576.439 1172.97 576.416 1172.79 576.473 1172.65 576.597 1172.51 576.72 1172.43 576.897 1172.43 577.083L1172.5 583.673 1156.65 585.128C1160.45 569.005 1165.81 547.41 1167.21 544.794 1167.67 544.909 1168.03 545.15 1168.31 545.521 1169.6 547.262 1168.91 551.421 1168.44 554.174 1168.06 556.464 1167.9 557.411 1168.46 557.863 1168.89 558.201 1169.75 558.204 1172.19 558.163 1175.25 558.113 1180.37 558.028 1181.84 559.476 1182.09 559.721 1182.2 559.989 1182.2 560.318 1182.2 560.343 1182.2 560.412 1182.08 560.53 1181.3 561.305 1178.39 561.676 1175.91 561.788 1174.92 561.783 1174.17 561.814 1173.94 561.825 1173.6 561.843 1173.32 562.132 1173.33 562.479 1173.34 562.826 1173.62 563.105 1173.97 563.108 1174.18 563.11 1174.89 563.113 1175.82 563.075 1176.4 563.077 1177.08 563.091 1177.78 563.129 1181.2 563.314 1182.15 563.903 1182.4 564.147 1182.52 564.266 1182.52 564.34 1182.52 564.375 1182.51 564.702 1182.37 564.971 1182.09 565.222 1180.98 566.226 1178.12 566.46 1176.03 566.46 1176.01 566.46 1175.99 566.46 1175.97 566.46 1174.94 566.399 1174.21 566.394 1174.15 566.394L1174.15 566.394C1173.81 566.394 1173.52 566.665 1173.51 567.009 1173.49 567.354 1173.75 567.65 1174.1 567.677 1174.32 567.696 1175.14 567.749 1176.21 567.751 1179.65 567.976 1182.07 568.684 1182.11 569.317 1182.13 569.601 1182.03 569.839 1181.81 570.064Z" fill="#0C62FB" fill-rule="nonzero" fill-opacity="1"/></g></g></g></g></g></svg>