<svg width="48" height="49" xmlns="http://www.w3.org/2000/svg" xmlns:xlink="http://www.w3.org/1999/xlink" xml:space="preserve" overflow="hidden"><g transform="translate(-708 -340)"><g><g><g><g><path d="M755.607 361.16 750.161 341.834C750.114 341.661 750.004 341.519 749.847 341.441 749.689 341.362 749.516 341.346 749.359 341.409L729.844 348.082C729.608 348.161 729.435 348.381 729.419 348.633 729.403 348.885 729.529 349.121 729.75 349.231L737.272 353.323 731.134 364.685C729.97 363.631 727.074 361.412 720.999 358.831 714.909 356.234 709.228 355.967 708.991 355.967 708.818 355.951 708.645 356.03 708.535 356.14 708.425 356.25 708.346 356.423 708.346 356.596L708.346 369.942C708.346 370.13 708.425 370.304 708.567 370.43 708.708 370.555 708.897 370.603 709.086 370.571 709.102 370.571 710.203 370.367 711.982 370.555 713.618 370.713 716.168 371.232 719.032 372.79 726.791 377.008 730.285 388.119 730.332 388.229 730.41 388.465 730.631 388.654 730.883 388.669 730.898 388.669 730.914 388.669 730.946 388.669 731.182 388.669 731.402 388.544 731.512 388.339L747.029 358.453 754.741 361.9C754.961 361.994 755.229 361.963 755.402 361.805 755.591 361.648 755.669 361.396 755.607 361.16ZM746.998 357.068C746.699 356.927 746.337 357.052 746.18 357.351L731.04 386.466C730.584 385.286 729.828 383.492 728.711 381.477 725.516 375.717 722.007 372.963 719.63 371.673 716.546 370.005 713.807 369.454 712.045 369.281 711.478 369.218 710.974 369.202 710.534 369.202 710.172 369.202 709.857 369.218 709.605 369.233L709.605 363.788C711.966 364.056 719.803 365.142 723.722 367.817 730.08 372.161 731.182 376.331 731.197 376.378 731.26 376.63 731.481 376.819 731.732 376.85 731.764 376.85 731.78 376.85 731.811 376.85 732.047 376.85 732.268 376.725 732.378 376.504L744.118 353.307 749.705 356.061C749.768 356.092 749.831 356.108 749.878 356.108 749.972 356.108 750.067 356.077 750.146 356.014 750.271 355.904 750.319 355.746 750.271 355.589L747.565 346.083C747.533 345.973 747.454 345.879 747.36 345.831 747.266 345.784 747.14 345.769 747.029 345.816L737.461 349.262C737.304 349.31 737.209 349.451 737.193 349.624 737.178 349.782 737.272 349.939 737.414 350.018L742.969 352.756 731.858 374.694C731.024 372.979 729.01 369.926 724.414 366.778 720.118 363.835 711.856 362.765 709.574 362.513L709.574 357.257C711.226 357.399 715.774 357.981 720.464 359.964 728.412 363.348 730.741 366.086 730.757 366.102 730.883 366.259 731.087 366.353 731.308 366.338 731.528 366.322 731.701 366.196 731.795 366.007L738.689 353.386C738.862 353.087 738.736 352.693 738.437 352.536L731.607 348.822 749.123 342.826 754.033 360.2 746.998 357.068Z" fill="#0C62FB" fill-rule="nonzero" fill-opacity="1"/></g></g></g></g></g></svg>