<svg width="50" height="50" xmlns="http://www.w3.org/2000/svg" xmlns:xlink="http://www.w3.org/1999/xlink" xml:space="preserve" overflow="hidden"><g transform="translate(-1034 -546)"><g><g><g><g><path d="M1082.32 564.436C1082.15 564.316 1081.93 564.288 1081.74 564.36L1074.14 567.152C1073.88 567.25 1073.71 567.509 1073.73 567.791L1073.76 568.181C1070.86 567.572 1061.85 565.698 1059.98 565.564 1058.72 565.474 1056.42 566.361 1056.01 566.523 1055.42 566.296 1054.45 565.94 1053.96 565.877 1052.07 565.632 1047.53 566.379 1045.41 566.762L1045.51 565.629C1045.54 565.349 1045.38 565.086 1045.11 564.985L1036.27 561.572C1036.08 561.496 1035.86 561.523 1035.68 561.641 1035.51 561.759 1035.41 561.956 1035.41 562.163L1035.57 582.792C1035.57 583.138 1035.85 583.417 1036.2 583.417L1043.33 583.417C1043.66 583.417 1043.93 583.168 1043.96 582.844L1044.06 581.749 1046.78 581.837C1046.42 582.625 1046.18 583.37 1046.12 583.784 1046.04 584.339 1046.21 584.846 1046.6 585.21 1047.03 585.617 1047.65 585.779 1048.21 585.779 1048.4 585.779 1048.57 585.762 1048.73 585.729 1048.8 585.716 1048.9 585.694 1049.06 585.598 1049.06 586.048 1049.22 586.454 1049.54 586.76 1049.97 587.167 1050.6 587.329 1051.16 587.329 1051.34 587.329 1051.52 587.312 1051.68 587.279 1051.77 587.262 1051.94 587.229 1052.18 587.015 1052.23 587.326 1052.38 587.606 1052.61 587.833 1053.04 588.247 1053.68 588.412 1054.26 588.412 1054.44 588.412 1054.61 588.396 1054.77 588.367 1055.03 588.318 1055.31 588.107 1055.58 587.794 1055.53 588.271 1055.67 588.71 1056.01 589.037 1056.43 589.452 1057.08 589.621 1057.67 589.621 1057.85 589.621 1058.02 589.605 1058.18 589.575 1058.96 589.434 1059.9 587.816 1060.39 586.404 1061.86 586.829 1063.13 587.147 1064.18 587.35 1065.13 587.532 1065.91 587.625 1066.54 587.625 1067.64 587.625 1068.28 587.35 1068.56 586.79 1068.68 586.558 1068.68 586.288 1068.58 586.028 1068.53 585.896 1068.45 585.749 1068.3 585.578 1069.02 585.668 1069.62 585.649 1070.04 585.468 1070.33 585.342 1070.51 585.164 1070.62 584.988L1074.95 583.908 1074.97 584.229C1074.98 584.409 1075.07 584.574 1075.22 584.684 1075.33 584.767 1075.46 584.811 1075.6 584.811 1075.64 584.811 1075.68 584.807 1075.72 584.799L1081.92 583.559C1082.22 583.5 1082.43 583.245 1082.43 582.946L1082.59 564.954C1082.59 564.747 1082.49 564.552 1082.32 564.434ZM1050.06 580.742C1049.98 582.123 1048.88 584.235 1048.47 584.578 1048.12 584.63 1047.7 584.539 1047.52 584.366 1047.45 584.306 1047.4 584.223 1047.43 584.032 1047.54 583.223 1048.58 580.812 1049.56 580.249 1049.69 580.177 1049.78 580.156 1049.85 580.156 1049.91 580.156 1049.95 580.174 1049.98 580.183L1049.98 580.188C1050 580.207 1050.08 580.353 1050.06 580.743ZM1052.87 582.251C1052.79 583.633 1051.69 585.745 1051.29 586.088 1050.93 586.14 1050.51 586.048 1050.33 585.875 1050.27 585.815 1050.21 585.732 1050.24 585.542 1050.35 584.733 1051.39 582.322 1052.37 581.758 1052.5 581.686 1052.59 581.665 1052.66 581.665 1052.72 581.665 1052.76 581.683 1052.79 581.692L1052.79 581.697C1052.81 581.716 1052.89 581.862 1052.87 582.252ZM1056.04 583.5C1055.96 584.882 1054.86 586.994 1054.46 587.337 1054.11 587.389 1053.69 587.298 1053.5 587.125 1053.44 587.065 1053.38 586.982 1053.41 586.791 1053.53 585.982 1054.56 583.571 1055.55 583.008 1055.67 582.935 1055.77 582.915 1055.84 582.915 1055.9 582.915 1055.94 582.932 1055.96 582.942L1055.96 582.946C1055.98 582.965 1056.07 583.112 1056.04 583.502ZM1059.48 584.854C1059.4 586.236 1058.3 588.348 1057.9 588.691 1057.54 588.743 1057.12 588.651 1056.94 588.478 1056.88 588.419 1056.82 588.335 1056.85 588.145 1056.96 587.336 1058 584.925 1058.98 584.361 1059.11 584.289 1059.2 584.268 1059.27 584.268 1059.33 584.268 1059.37 584.286 1059.4 584.295L1059.4 584.3C1059.42 584.319 1059.5 584.465 1059.48 584.855ZM1064.51 583.227C1064.34 583.165 1064.17 583.104 1064.01 583.041 1063.97 583.02 1063.92 582.998 1063.87 582.978 1061.85 582.049 1059.87 581.278 1059.85 581.272 1059.53 581.151 1059.17 581.299 1059.04 581.61 1058.91 581.922 1059.04 582.282 1059.35 582.429 1059.98 582.729 1061.76 583.554 1063.73 584.292 1065.57 585.161 1067.4 585.719 1067.26 586.305 1067.15 586.757 1065.33 586.528 1060.7 585.184 1060.7 585.147 1060.71 585.11 1060.71 585.074 1060.82 583.837 1060.21 583.419 1059.84 583.279 1059.49 583.146 1058.92 583.069 1058.26 583.461 1057.87 583.688 1057.5 584.045 1057.17 584.459 1057.23 584.209 1057.28 583.974 1057.3 583.766 1057.41 582.496 1056.81 582.065 1056.43 581.922 1056.08 581.787 1055.53 581.706 1054.87 582.09 1054.62 582.234 1054.39 582.43 1054.16 582.662 1054.17 582.594 1054.18 582.525 1054.19 582.46 1054.31 581.179 1053.8 580.688 1053.34 580.501 1053 580.362 1052.47 580.271 1051.82 580.639 1051.61 580.759 1051.41 580.923 1051.21 581.115 1051.22 581.045 1051.23 580.976 1051.24 580.91 1051.37 579.629 1050.85 579.136 1050.4 578.951 1050.06 578.811 1049.52 578.722 1048.88 579.089 1048.34 579.394 1047.85 579.963 1047.44 580.613L1044.17 580.498 1045.29 568.066C1047.16 567.723 1051.98 566.894 1053.8 567.129 1054.04 567.16 1054.57 567.336 1055.1 567.528L1048.77 574.135C1048.61 574.3 1048.56 574.536 1048.62 574.753 1048.69 574.971 1048.87 575.136 1049.09 575.185 1049.62 575.301 1052.32 575.876 1053.15 575.817 1054.5 575.72 1056.57 574.469 1058.08 573.554 1058.54 573.276 1059.06 572.962 1059.26 572.873 1059.8 572.94 1062.41 573.641 1065.54 574.72 1069.53 576.102 1071.48 576.817 1071.51 577.353 1071.51 577.402 1071.43 577.426 1071.36 577.462 1070.41 577.947 1067.74 577.311 1065.16 576.447 1063.21 575.661 1061.56 575.07 1061.54 575.063 1061.22 574.949 1060.86 575.109 1060.74 575.425 1060.61 575.742 1060.76 576.099 1061.07 576.234 1061.65 576.485 1063.21 577.141 1065.01 577.736 1068.06 578.984 1070.8 579.81 1070.7 580.584 1070.64 581.03 1069.08 581.042 1065.42 579.919 1065.37 579.904 1065.32 579.889 1065.28 579.875 1062.79 578.8 1060.38 578.038 1060.27 578.005 1059.95 577.906 1059.61 578.071 1059.49 578.384 1059.37 578.697 1059.52 579.047 1059.83 579.182 1059.93 579.226 1069.65 582.803 1069.56 584.001 1069.33 584.608 1067.81 584.453 1064.5 583.231ZM1070.73 583.666C1070.54 583.132 1070.06 582.585 1069.28 582.012 1070.65 582.089 1071.52 581.785 1071.94 581.105 1072.09 580.871 1072.12 580.591 1072.02 580.315 1071.94 580.078 1071.8 579.676 1070.42 578.869 1071.02 578.869 1071.54 578.782 1071.94 578.581 1072.4 578.348 1072.69 577.972 1072.8 577.495 1072.85 577.254 1072.83 576.883 1072.41 576.474 1071.4 575.496 1068.01 574.22 1065.35 573.321 1065.12 573.244 1059.75 571.442 1059 571.63 1058.72 571.7 1058.32 571.94 1057.43 572.475 1056.19 573.227 1054.11 574.484 1053.06 574.56 1052.71 574.587 1051.55 574.393 1050.47 574.181 1050.47 574.181 1056.73 567.631 1056.76 567.585 1057.58 567.275 1059.13 566.763 1059.89 566.82 1061.74 566.952 1071.48 568.989 1073.86 569.489L1074.85 582.636 1070.74 583.666Z" fill="#0C62FB" fill-rule="nonzero" fill-opacity="1"/></g></g></g></g></g></svg>