<svg width="49" height="49" xmlns="http://www.w3.org/2000/svg" xmlns:xlink="http://www.w3.org/1999/xlink" xml:space="preserve" overflow="hidden"><g transform="translate(-696 -364)"><g><g><g><g><path d="M740.265 369.205C739.811 369.076 729.086 366.053 720.813 366.242 709.762 366.493 702.085 370.897 701.764 371.086 701.58 371.193 701.462 371.388 701.452 371.6 701.449 371.663 701.185 377.957 702.612 385.073 703.454 389.271 704.71 392.936 706.348 395.969 708.418 399.799 711.103 402.627 714.33 404.376 717.753 406.23 722.489 411.294 722.536 411.344 722.656 411.472 722.822 411.544 722.997 411.544 723.008 411.544 723.018 411.544 723.029 411.544 723.214 411.535 723.386 411.444 723.499 411.296 723.534 411.25 727.012 406.725 733.873 402.541 736.558 400.904 738.524 394.865 739.715 384.595 740.589 377.065 740.721 369.893 740.722 369.822 740.727 369.537 740.54 369.284 740.266 369.205ZM733.217 401.464C727.509 404.944 724.132 408.581 722.959 409.963 721.625 408.582 717.898 404.875 714.93 403.268 711.154 401.223 706.167 396.37 703.851 384.852 702.64 378.83 702.667 373.412 702.699 372.008 704.216 371.202 711.307 367.718 720.841 367.501 727.972 367.34 737.279 369.706 739.454 370.288 739.27 378.467 737.846 398.642 733.219 401.464Z" fill="#0C62FB" fill-rule="nonzero" fill-opacity="1"/><path d="M706.029 373.593C705.84 373.705 705.723 373.906 705.719 374.125 705.716 374.336 705.645 379.365 706.795 385.154 708.359 393.026 711.317 398.213 715.586 400.567 718.682 402.275 722.253 405.696 722.289 405.731 722.41 405.847 722.568 405.907 722.725 405.907 722.871 405.907 723.019 405.857 723.137 405.753 723.172 405.723 726.725 402.641 731.39 398.693 737.318 393.674 736.766 373.528 736.739 372.674 736.731 372.4 736.547 372.164 736.284 372.088 736.262 372.082 734.075 371.454 731.122 370.856 727.147 370.049 723.743 369.673 721.011 369.734 712.322 369.934 706.281 373.443 706.029 373.593ZM735.49 373.176C735.512 374.565 735.535 378.892 735.081 383.575 734.363 390.951 732.805 395.846 730.576 397.733 726.845 400.891 723.823 403.494 722.741 404.431 721.683 403.455 718.83 400.92 716.194 399.466 707.462 394.648 706.995 377.247 706.978 374.509 708.304 373.807 713.77 371.161 721.039 370.995 726.514 370.87 733.653 372.683 735.49 373.177Z" fill="#0C62FB" fill-rule="nonzero" fill-opacity="1"/><path d="M718.76 395.135C721.991 396.26 722.226 398.427 722.563 398.399 723.103 398.353 723.221 396.202 726.909 394.562 730.548 392.944 731.887 377.228 731.887 377.228 731.887 377.228 725.035 375.126 721.274 375.212 716.266 375.327 710.865 377.99 710.865 377.99 710.865 377.99 711.605 392.64 718.76 395.135Z" fill="#0C62FB" fill-rule="nonzero" fill-opacity="1"/></g></g></g></g></g></svg>