<svg width="49" height="49" xmlns="http://www.w3.org/2000/svg" xmlns:xlink="http://www.w3.org/1999/xlink" xml:space="preserve" overflow="hidden"><g transform="translate(-1032 -80)"><g><g><g><g><path d="M1071.29 123.57C1071.27 123.429 1070.72 120.077 1069.04 116.41 1066.85 111.689 1063.75 108.651 1060.01 107.597L1060.12 102.875C1063.36 102.45 1065.97 99.539 1067.69 94.4085 1068.83 90.9777 1069.26 87.6256 1069.35 86.6656 1069.37 86.5554 1069.39 86.4452 1069.39 86.3351 1069.39 83.3449 1062.52 81.7397 1056.07 81.7397 1049.62 81.7397 1042.76 83.518 1042.76 86.5082 1042.76 86.7915 1042.93 87.4682 1042.96 87.5626 1043.15 88.1449 1047.37 101.396 1053.84 102.828L1053.9 107.943C1050.67 108.368 1048.08 111.122 1046.35 115.985 1045.01 119.762 1044.66 123.445 1044.65 123.602 1044.65 123.618 1044.65 123.633 1044.65 123.665 1044.65 126.655 1051.51 128.26 1057.98 128.26 1064.44 128.26 1071.31 126.655 1071.31 123.665 1071.29 123.633 1071.29 123.602 1071.29 123.57ZM1068.8 119.353C1067.14 118.11 1062.34 120.124 1060.53 115.214 1059.58 112.633 1055.6 106.715 1058.79 103.111L1058.68 108.085C1058.68 108.384 1058.89 108.667 1059.19 108.73 1064.54 109.973 1067.4 115.371 1068.8 119.353ZM1067.37 90.5843C1067.37 90.5843 1067.37 90.5685 1067.39 90.5528 1067.37 90.5685 1066.22 92.6774 1057.47 92.882 1052 93.0079 1045.72 90.9934 1045.65 90.9777 1045.64 90.9777 1045.64 90.9777 1045.64 90.9777 1045.34 90.2695 1045.09 89.6243 1044.87 89.0734 1047.4 90.3482 1051.84 90.962 1056.06 90.962 1060.6 90.962 1065.34 90.1593 1067.76 88.6485 1067.65 89.1993 1067.54 89.8761 1067.37 90.5843ZM1056.07 83.0302C1063.5 83.0302 1068.06 84.9344 1068.1 86.3193 1068.1 86.3508 1068.08 86.4138 1068.08 86.4767 1067.78 87.8459 1063.26 89.6243 1056.07 89.6243 1048.34 89.6243 1044.08 87.783 1044.08 86.5082 1044.06 85.0918 1048.74 83.0302 1056.07 83.0302ZM1046.33 92.52C1048.31 93.0866 1052.74 94.1725 1056.97 94.1725 1057.14 94.1725 1057.33 94.1725 1057.5 94.1725 1062.63 94.0466 1065.4 93.2911 1066.9 92.5515 1066.3 94.7075 1065.42 97.021 1064.14 98.7836 1062.11 95.7148 1052.22 95.1954 1050.96 98.3587 1050.56 99.3502 1051.44 100.184 1052.58 100.955 1049.98 99.3974 1047.81 95.699 1046.33 92.52ZM1054.59 109.186C1054.94 109.17 1055.22 108.887 1055.22 108.525L1055.16 102.576C1055.54 102.86 1055.82 103.143 1055.95 103.41 1056.92 105.488 1056.06 114.301 1052.29 117.15 1050.08 118.833 1047.43 119.369 1046.47 120.47 1047.35 116.252 1049.56 109.359 1054.59 109.186ZM1057.98 126.97C1050.58 126.97 1046.02 125.066 1045.95 123.696 1045.97 123.618 1045.98 123.35 1046.05 122.988 1047.49 123.429 1052.44 124.83 1056.23 124.83 1056.51 124.83 1056.8 124.83 1057.06 124.798 1065.22 124.294 1068.39 122.673 1069.56 121.792 1069.83 122.815 1069.97 123.523 1070 123.728 1069.89 125.081 1065.34 126.97 1057.98 126.97Z" fill="#0C62FB" fill-rule="nonzero" fill-opacity="1"/></g></g></g></g></g></svg>